<?xml version="1.0" encoding="UTF-8"?>
<!DOCTYPE svg  PUBLIC '-//W3C//DTD SVG 1.1//EN'  'http://www.w3.org/Graphics/SVG/1.1/DTD/svg11.dtd'>
<svg enable-background="new 0 0 800 800" version="1.1" viewBox="0 0 800 800" xml:space="preserve" xmlns="http://www.w3.org/2000/svg">
		<rect x="326.9" y="356.4" width="191.7" height="95.2" fill="#333"/>
		<path d="m495.4 461.2h-11.6v-19.3h11.6v19.3zm-23.2 0h-11.6v-19.3h11.6v19.3zm-23.2 0h-11.6v-19.3h11.6v19.3zm-23.2 0h-11.6v-19.3h11.6v19.3zm-23.1 0h-11.6v-19.3h11.6v19.3zm-23.2 0h-11.6v-19.3h11.6v19.3zm-23.2 0h-11.6v-19.3h11.6v19.3zm-19.8-26.5h-19.3v-11.6h19.3v11.6zm191.7-12.2h-19.3v-11.6h19.3v11.6zm-191.7-11h-19.3v-11.6h19.3v11.6zm191.7-12.2h-19.3v-11.6h19.3v11.6zm-191.7-11h-19.3v-11.6h19.3v11.6zm155.5-22.3h-11.6v-19.3h11.6v19.3zm-23.2 0h-11.6v-19.3h11.6v19.3zm-23.2 0h-11.6v-19.3h11.6v19.3zm-23.2 0h-11.6v-19.3h11.6v19.3zm-23.1 0h-11.6v-19.3h11.6v19.3zm-23.2 0h-11.6v-19.3h11.6v19.3zm-23.2 0h-11.6v-19.3h11.6v19.3z"/>
	<rect x="488" y="289" width="3" height="58"/>
	<rect x="488" y="289" width="61" height="4"/>
			<path d="m549.6 297.3c7 0 7-10.8 0-10.8s-7 10.8 0 10.8z"/>
	<rect x="462" y="250" width="4" height="97"/>
	<rect x="462" y="250" width="47" height="3"/>
	<rect x="506" y="221" width="3" height="32"/>
			<path d="m507.1 226.6c7 0 7-10.8 0-10.8s-7 10.8 0 10.8z"/>
	<rect x="437" y="217" width="4" height="130"/>
	<rect x="416" y="275" width="3" height="72"/>
	<rect x="391" y="304" width="3" height="43"/>
	<rect x="362" y="304" width="29" height="3"/>
	<rect x="358" y="253" width="4" height="54"/>
	<rect x="369" y="322" width="4" height="25"/>
	<rect x="333" y="322" width="36" height="3"/>
	<rect x="347" y="336" width="4" height="11"/>
	<rect x="283" y="336" width="64" height="4"/>
			<path d="m282.4 345.3c7 0 7-10.8 0-10.8-6.9 0-6.9 10.8 0 10.8z"/>
			<path d="m331 330.3c7 0 7-10.8 0-10.8s-7 10.8 0 10.8z"/>
			<path d="m358.5 260.2c7 0 7-10.8 0-10.8s-6.9 10.8 0 10.8z"/>
			<path d="m415.4 281.2c7 0 7-10.8 0-10.8-6.9 0-6.9 10.8 0 10.8z"/>
			<path d="m437.6 221.3c7 0 7-10.8 0-10.8s-7 10.8 0 10.8z"/>
	<rect x="527" y="390" width="54" height="4"/>
	<rect x="527" y="415" width="43" height="4"/>
	<rect x="567" y="419" width="3" height="50"/>
			<path d="m580.8 398c7 0 7-10.8 0-10.8s-7 10.8 0 10.8z"/>
			<path d="m568.8 475.3c7 0 7-10.8 0-10.8s-7 10.8 0 10.8z"/>
	<rect x="488" y="462" width="3" height="61"/>
	<rect x="488" y="523" width="61" height="3"/>
	<rect x="466" y="462" width="4" height="86"/>
	<rect x="466" y="548" width="58" height="4"/>
	<rect x="441" y="462" width="3" height="86"/>
	<polygon points="419.2 584 376 584 376 580 417.7 580 419 579.3 419 458 423 458 423 580.8"/>
	<rect x="394" y="458" width="4" height="97"/>
	<polygon points="368.8 573 333 573 333 570 367.3 570 369 568.6 369 455 373 455 373 570"/>
	<polygon points="347.3 512 304 512 304 509 345.8 509 347 507.5 347 455 351 455 351 508.9"/>
			<path d="m548.4 530.4c7 0 7-10.8 0-10.8s-7 10.8 0 10.8z"/>
			<path d="m522.6 556.1c7 0 7-10.8 0-10.8s-6.9 10.8 0 10.8z"/>
			<path d="m441.2 554.3c7 0 7-10.8 0-10.8s-7 10.8 0 10.8z"/>
			<path d="m394.4 562.1c7 0 7-10.8 0-10.8-6.9 0-6.9 10.8 0 10.8z"/>
			<path d="m375.3 589.1c7 0 7-10.8 0-10.8s-7 10.8 0 10.8z"/>
			<path d="m331.5 577.1c7 0 7-10.8 0-10.8-6.9 0-6.9 10.8 0 10.8z"/>
			<path d="m302.2 516.6c7 0 7-10.8 0-10.8s-7 10.8 0 10.8z"/>
	<rect x="250" y="379" width="72" height="4"/>
	<rect x="222" y="404" width="104" height="4"/>
	<rect x="218" y="343" width="4" height="65"/>
	<polygon points="258 476 254 476 254 428.4 255.9 426 326 426 326 429 257.4 429 258 429.9"/>
			<path d="m219.5 349.5c7 0 7-10.8 0-10.8-6.9 0-6.9 10.8 0 10.8z"/>
			<path d="m250.7 386.6c7 0 7-10.8 0-10.8s-7 10.8 0 10.8z"/>
			<path d="m254.3 483c7 0 7-10.8 0-10.8-7 0.1-7 10.8 0 10.8z"/>
</svg>
